<svg id="Vrstva_1" data-name="Vrstva 1" xmlns="http://www.w3.org/2000/svg" xmlns:xlink="http://www.w3.org/1999/xlink" viewBox="0 0 134 65.48">
  <defs>
    <clipPath id="clip-path">
      <path d="M67,0A22.14,22.14,0,0,0,48,11h7.66a15.86,15.86,0,0,1,22.68,0H86A22.14,22.14,0,0,0,67,0M22.14,38.93A16.3,16.3,0,0,1,6,22.5,16.3,16.3,0,0,1,22.14,6.07,16,16,0,0,1,33.4,10.71H41A22.07,22.07,0,0,0,22.14,0,22.32,22.32,0,0,0,0,22.5,22.32,22.32,0,0,0,22.14,45,22.07,22.07,0,0,0,41,34.29H33.4a16,16,0,0,1-11.26,4.64M111.86,0A22.07,22.07,0,0,0,93,10.71h7.6a16,16,0,0,1,11.26-4.64A16.3,16.3,0,0,1,128,22.5a16.3,16.3,0,0,1-16.17,16.43,16,16,0,0,1-11.26-4.64H93A22.07,22.07,0,0,0,111.86,45,22.32,22.32,0,0,0,134,22.5,22.32,22.32,0,0,0,111.86,0M67,38.77A15.93,15.93,0,0,1,55.66,34H48a21.91,21.91,0,0,0,38,0H78.34A15.93,15.93,0,0,1,67,38.77" fill="none"/>
    </clipPath>
    <clipPath id="clip-path-2">
      <rect x="-310" y="-42" width="1800" height="3588" fill="none"/>
    </clipPath>
    <clipPath id="clip-path-3">
      <path d="M13,13h9a11,11,0,0,1,4.29.7,7,7,0,0,1,2.7,2,8.26,8.26,0,0,1,1.55,3A13.8,13.8,0,0,1,31,22.43a12.58,12.58,0,0,1-.71,4.73,7.85,7.85,0,0,1-2,2.81,6.52,6.52,0,0,1-2.73,1.51A14.14,14.14,0,0,1,22,32H13Zm6,4V27h1.51a6.94,6.94,0,0,0,2.75-.39,2.8,2.8,0,0,0,1.28-1.38A7.91,7.91,0,0,0,25,22.06c0-1.94-.34-3.27-1-4A4.65,4.65,0,0,0,20.54,17Z" fill="none"/>
    </clipPath>
    <clipPath id="clip-path-5">
      <path d="M42.79,28.86H36l-1,3.14H29l7.25-19h6.5L50,32H43.76ZM41,25l-2-7-2,7Z" fill="none"/>
    </clipPath>
    <clipPath id="clip-path-7">
      <polygon points="51 13 56.86 13 56.86 27.32 66 27.32 66 32 51 32 51 13" fill="none"/>
    </clipPath>
    <clipPath id="clip-path-9">
      <polygon points="64 13 82 13 82 17.69 75.96 17.69 75.96 32 70.04 32 70.04 17.69 64 17.69 64 13" fill="none"/>
    </clipPath>
    <clipPath id="clip-path-11">
      <polygon points="83 13 98.72 13 98.72 17.06 88.88 17.06 88.88 20.08 98 20.08 98 23.95 88.88 23.95 88.88 27.7 99 27.7 99 32 83 32 83 13" fill="none"/>
    </clipPath>
    <clipPath id="clip-path-13">
      <polygon points="101 13 106.83 13 106.83 20.18 112.94 13 120.69 13 113.81 20.17 121 32 113.82 32 109.84 24.19 106.83 27.36 106.83 32 101 32 101 13" fill="none"/>
    </clipPath>
  </defs>
  <title>Kreslicí plátno 1</title>
  <g>
    <g clip-path="url(#clip-path)">
      <g clip-path="url(#clip-path-2)">
        <rect x="-5" y="-5" width="144" height="55" fill="#fff"/>
      </g>
    </g>
    <g clip-path="url(#clip-path-3)">
      <g clip-path="url(#clip-path-2)">
        <rect x="8" y="8" width="28" height="29" fill="#fff"/>
      </g>
    </g>
    <g clip-path="url(#clip-path-5)">
      <g clip-path="url(#clip-path-2)">
        <rect x="24" y="8" width="31" height="29" fill="#fff"/>
      </g>
    </g>
    <g clip-path="url(#clip-path-7)">
      <g clip-path="url(#clip-path-2)">
        <rect x="46" y="8" width="25" height="29" fill="#fff"/>
      </g>
    </g>
    <g clip-path="url(#clip-path-9)">
      <g clip-path="url(#clip-path-2)">
        <rect x="59" y="8" width="28" height="29" fill="#fff"/>
      </g>
    </g>
    <g clip-path="url(#clip-path-11)">
      <g clip-path="url(#clip-path-2)">
        <rect x="78" y="8" width="26" height="29" fill="#fff"/>
      </g>
    </g>
    <g clip-path="url(#clip-path-13)">
      <g clip-path="url(#clip-path-2)">
        <rect x="96" y="8" width="30" height="29" fill="#fff"/>
      </g>
    </g>
  </g>
  <g>
    <path d="M32.36,63.23a.81.81,0,0,1,.6.21.72.72,0,0,1,.23.55v1.37H25.38V64.6a1.39,1.39,0,0,1,.09-.47,1.17,1.17,0,0,1,.32-.46L29,60.45a9.76,9.76,0,0,0,.72-.79,5,5,0,0,0,.5-.73,4,4,0,0,0,.3-.73,2.68,2.68,0,0,0,.1-.76,1.47,1.47,0,0,0-.32-1,1.21,1.21,0,0,0-1-.36,1.45,1.45,0,0,0-.89.28,1.47,1.47,0,0,0-.5.69,1,1,0,0,1-.42.56,1.22,1.22,0,0,1-.74.06l-1.25-.22A4.13,4.13,0,0,1,26,56a3.38,3.38,0,0,1,2-1.64,4.71,4.71,0,0,1,1.43-.2,4.33,4.33,0,0,1,1.48.24,3.35,3.35,0,0,1,1.12.66,3.05,3.05,0,0,1,.72,1,3.73,3.73,0,0,1,.07,2.43,4.2,4.2,0,0,1-.47,1,6.61,6.61,0,0,1-.69.91c-.26.29-.54.59-.83.89L28.7,63.5a5,5,0,0,1,.83-.2,4.21,4.21,0,0,1,.76-.07Z" fill="#fff"/>
    <path d="M37.15,58.17l.6-.09.56,0a4.13,4.13,0,0,1,1.55.27,3.2,3.2,0,0,1,1.13.73,2.9,2.9,0,0,1,.69,1.08,3.87,3.87,0,0,1,.23,1.33,4.15,4.15,0,0,1-.31,1.63,3.83,3.83,0,0,1-2.23,2.09,4.72,4.72,0,0,1-1.71.29,4.28,4.28,0,0,1-1-.11,5.34,5.34,0,0,1-.93-.31,5.06,5.06,0,0,1-.79-.45,5.26,5.26,0,0,1-.67-.54l.74-1a.71.71,0,0,1,.26-.23.73.73,0,0,1,.33-.08.82.82,0,0,1,.43.12l.44.28a3.24,3.24,0,0,0,.56.27,2.32,2.32,0,0,0,.8.12,1.94,1.94,0,0,0,.8-.15,1.49,1.49,0,0,0,.55-.43,1.67,1.67,0,0,0,.3-.63,2.83,2.83,0,0,0,.1-.78,1.57,1.57,0,0,0-.46-1.23,1.82,1.82,0,0,0-1.29-.42,4,4,0,0,0-1.47.28l-1.46-.4.94-5.55H41.5v1a1.09,1.09,0,0,1-.08.45.88.88,0,0,1-.24.34,1,1,0,0,1-.43.23,2.32,2.32,0,0,1-.64.08H37.46Z" fill="#fff"/>
    <path d="M49,54.14V65.36H47.63V54.14Z" fill="#fff"/>
    <path d="M57.45,64.28a2.62,2.62,0,0,1-.61.53,3.74,3.74,0,0,1-.75.37,4.5,4.5,0,0,1-.82.22,5,5,0,0,1-.85.07,4,4,0,0,1-1.48-.27,3.42,3.42,0,0,1-1.16-.79,3.71,3.71,0,0,1-.77-1.3,5.29,5.29,0,0,1-.27-1.76A4.35,4.35,0,0,1,51,59.84a3.35,3.35,0,0,1,1.84-2,3.84,3.84,0,0,1,1.51-.29,3.61,3.61,0,0,1,1.29.23,2.87,2.87,0,0,1,1.69,1.76A3.89,3.89,0,0,1,57.57,61a1,1,0,0,1-.07.43.29.29,0,0,1-.26.11H52.08a4.34,4.34,0,0,0,.2,1.27,2.6,2.6,0,0,0,.5.9,2,2,0,0,0,.76.54,2.64,2.64,0,0,0,1,.18,2.84,2.84,0,0,0,.88-.12,3.56,3.56,0,0,0,.64-.25,4.19,4.19,0,0,0,.45-.26.56.56,0,0,1,.31-.11.28.28,0,0,1,.25.13Zm-1.1-3.62a2.69,2.69,0,0,0-.14-.87,1.77,1.77,0,0,0-.38-.67,1.81,1.81,0,0,0-.63-.45,2.16,2.16,0,0,0-.83-.15,2.08,2.08,0,0,0-1.54.57,2.61,2.61,0,0,0-.7,1.57Z" fill="#fff"/>
    <path d="M61.55,65.48A1.87,1.87,0,0,1,60.14,65a2,2,0,0,1-.49-1.47V58.78h-.93a.38.38,0,0,1-.21-.07.32.32,0,0,1-.08-.23v-.54l1.26-.16L60,55.39a.29.29,0,0,1,.1-.18.29.29,0,0,1,.21-.08H61v2.66h2.23v1H61v4.63a1,1,0,0,0,.23.73.85.85,0,0,0,.61.23,1,1,0,0,0,.37-.06,1.36,1.36,0,0,0,.27-.12l.2-.13a.22.22,0,0,1,.14,0,.23.23,0,0,1,.19.13l.39.64a2.54,2.54,0,0,1-.84.52A3,3,0,0,1,61.55,65.48Z" fill="#fff"/>
    <path d="M73,58.91a.28.28,0,0,1-.28.17A.59.59,0,0,1,72.5,59l-.35-.19a3.51,3.51,0,0,0-.5-.19,2.4,2.4,0,0,0-.69-.09,2,2,0,0,0-.62.09,1.6,1.6,0,0,0-.47.24,1,1,0,0,0-.29.36.92.92,0,0,0-.11.43.71.71,0,0,0,.18.5,1.33,1.33,0,0,0,.45.34,4.26,4.26,0,0,0,.64.26l.73.23.74.28a2.71,2.71,0,0,1,.64.38,1.74,1.74,0,0,1,.45.56,1.66,1.66,0,0,1,.18.8,2.5,2.5,0,0,1-.2,1,2,2,0,0,1-.56.78,2.61,2.61,0,0,1-.91.52,3.73,3.73,0,0,1-1.25.19,3.85,3.85,0,0,1-1.47-.26A3.69,3.69,0,0,1,68,64.55L68.3,64a.41.41,0,0,1,.14-.15.38.38,0,0,1,.22-.06.53.53,0,0,1,.29.11l.37.24a3,3,0,0,0,.53.23,2.63,2.63,0,0,0,1.47,0,1.37,1.37,0,0,0,.49-.28,1.09,1.09,0,0,0,.3-.41,1.28,1.28,0,0,0,.09-.48.77.77,0,0,0-.17-.53,1.38,1.38,0,0,0-.45-.36,3.52,3.52,0,0,0-.65-.26l-.74-.23c-.25-.08-.49-.18-.74-.28a3.12,3.12,0,0,1-.64-.39,1.75,1.75,0,0,1-.45-.59,1.8,1.8,0,0,1-.17-.84,2.09,2.09,0,0,1,.18-.85,2.17,2.17,0,0,1,.53-.72,2.76,2.76,0,0,1,.86-.49,3.51,3.51,0,0,1,1.17-.18,3.72,3.72,0,0,1,1.37.24,3.34,3.34,0,0,1,1,.66Z" fill="#fff"/>
    <path d="M85.3,57.64l-3.15,7.72H80.93l-3.15-7.72h1.11a.4.4,0,0,1,.27.09.45.45,0,0,1,.15.19l2,5a4.21,4.21,0,0,1,.16.55c0,.18.09.36.13.54,0-.18.09-.36.13-.54s.11-.36.17-.55l2-5a.39.39,0,0,1,.16-.2.41.41,0,0,1,.25-.08Z" fill="#fff"/>
    <path d="M86.18,58.73a4.44,4.44,0,0,1,1.38-.92,4.32,4.32,0,0,1,1.64-.31,3,3,0,0,1,1.15.22,2.36,2.36,0,0,1,.85.59,2.43,2.43,0,0,1,.51.92,3.8,3.8,0,0,1,.18,1.19v4.94h-.6A.66.66,0,0,1,91,65.3a.47.47,0,0,1-.16-.26l-.16-.73a6.29,6.29,0,0,1-.59.5,3.2,3.2,0,0,1-.61.37,3.61,3.61,0,0,1-.68.22,3.37,3.37,0,0,1-.81.08,2.84,2.84,0,0,1-.84-.12,1.92,1.92,0,0,1-.69-.38,1.86,1.86,0,0,1-.47-.63,2.32,2.32,0,0,1-.17-.92,1.71,1.71,0,0,1,.25-.88,2.24,2.24,0,0,1,.82-.75,5.18,5.18,0,0,1,1.47-.53A11.06,11.06,0,0,1,90.56,61v-.61a2.12,2.12,0,0,0-.38-1.36A1.43,1.43,0,0,0,89,58.6a2.25,2.25,0,0,0-.84.13,3.25,3.25,0,0,0-.59.28l-.43.28a.56.56,0,0,1-.35.13.48.48,0,0,1-.24-.07.69.69,0,0,1-.16-.18Zm4.38,3.16A11,11,0,0,0,89,62a4.58,4.58,0,0,0-1.08.3,1.55,1.55,0,0,0-.6.45,1,1,0,0,0-.19.58,1.39,1.39,0,0,0,.1.53,1,1,0,0,0,.27.36,1.14,1.14,0,0,0,.41.21,2,2,0,0,0,.5.06,2.64,2.64,0,0,0,.65-.07,2.49,2.49,0,0,0,.56-.21,2.78,2.78,0,0,0,.51-.33,3.67,3.67,0,0,0,.46-.43Zm.69-7.57-1.78,2a.63.63,0,0,1-.21.17.6.6,0,0,1-.26,0h-.81l1.13-1.85a.81.81,0,0,1,.23-.25.75.75,0,0,1,.37-.08Z" fill="#fff"/>
    <path d="M94,65.36V57.64h.81a.35.35,0,0,1,.36.28l.1.8a4,4,0,0,1,1-.87,2.29,2.29,0,0,1,1.23-.33,1.84,1.84,0,0,1,1.27.43,2.47,2.47,0,0,1,.69,1.18,2.43,2.43,0,0,1,1-1.23,2.66,2.66,0,0,1,.7-.29,3.2,3.2,0,0,1,.75-.09,2.86,2.86,0,0,1,1.09.19,2.13,2.13,0,0,1,.81.57,2.48,2.48,0,0,1,.5.92,4,4,0,0,1,.18,1.25v4.91h-1.37V60.45a2.1,2.1,0,0,0-.39-1.38,1.43,1.43,0,0,0-1.14-.47,1.69,1.69,0,0,0-.64.12,1.44,1.44,0,0,0-.53.35,1.64,1.64,0,0,0-.36.57,2.21,2.21,0,0,0-.14.81v4.91H98.5V60.45a2.22,2.22,0,0,0-.37-1.39A1.33,1.33,0,0,0,97,58.6a1.68,1.68,0,0,0-.92.27,3,3,0,0,0-.79.74v5.75Z" fill="#fff"/>
    <path d="M108.22,55.22a1,1,0,0,1-.08.37,1.29,1.29,0,0,1-.22.3,1,1,0,0,1-.31.21,1,1,0,0,1-.38.08,1,1,0,0,1-.37-.08,1,1,0,0,1-.3-.21,1.21,1.21,0,0,1-.2-.3,1,1,0,0,1-.08-.37,1,1,0,0,1,.08-.38,1.1,1.1,0,0,1,.2-.31,1,1,0,0,1,.3-.21,1,1,0,0,1,.37-.08,1,1,0,0,1,.38.08,1,1,0,0,1,.31.21,1.16,1.16,0,0,1,.22.31A1,1,0,0,1,108.22,55.22Zm-.29,2.42v7.72h-1.36V57.64Z" fill="#fff"/>
  </g>
</svg>
